<?xml version="1.0" encoding="UTF-8"?>
<!DOCTYPE svg PUBLIC "-//W3C//DTD SVG 1.1//EN" "http://www.w3.org/Graphics/SVG/1.1/DTD/svg11.dtd">
<!-- Creator: CorelDRAW X5 -->
<svg xmlns="http://www.w3.org/2000/svg" xml:space="preserve" width="190.491mm" height="130mm" style="shape-rendering:geometricPrecision; text-rendering:geometricPrecision; image-rendering:optimizeQuality; fill-rule:evenodd; clip-rule:evenodd"
viewBox="0 0 19049 13000"
 xmlns:xlink="http://www.w3.org/1999/xlink">
 <defs>
  <style type="text/css">
   <![CDATA[
    .fil1 {fill:#1C4596}
    .fil0 {fill:#3C893F}
    .fil2 {fill:#1C4596;fill-rule:nonzero}
    .fil3 {fill:#3C893F;fill-rule:nonzero}
   ]]>
  </style>
 </defs>
 <g id="Layer_x0020_1">
  <metadata id="CorelCorpID_0Corel-Layer"/>
  <path class="fil0" d="M9064 5705l292 -262 -324 0 0 -361 153 0 -285 -259 -274 254 140 0 0 433c1,134 23,195 140,196l158 -2z"/>
  <path class="fil0" d="M9946 4826l-292 262 324 0 0 361 -153 0 285 259 274 -254 -140 0 0 -433c-1,-134 -23,-195 -140,-196l-158 2z"/>
  <path class="fil0" d="M9945 5707l-262 -292 0 324 -361 0 0 -153 -259 285 254 274 0 -140 433 0c134,-1 195,-23 196,-140l-2 -158z"/>
  <path class="fil0" d="M9066 4825l262 292 0 -324 361 0 0 153 259 -285 -254 -274 0 140 -433 0c-134,1 -195,23 -196,140l2 158z"/>
  <path class="fil1" d="M7900 4461c-37,59 -68,59 -96,310 -28,251 131,515 131,515 0,0 -16,-121 60,-221 76,-100 228,-248 299,-348 71,-100 90,-227 90,-227l0 0c-66,30 -139,46 -215,46 -98,0 -190,-27 -269,-74z"/>
  <path class="fil1" d="M8538 4020c0,204 -165,370 -370,370 -204,0 -370,-165 -370,-370 0,-204 165,-370 370,-370 204,0 370,165 370,370z"/>
  <path class="fil1" d="M8589 3709c0,0 284,-205 569,-245 285,-40 694,29 694,29 0,0 -197,14 -320,86 -123,72 -220,182 -366,313 -145,131 -248,217 -351,265 -66,31 -123,39 -155,40 20,-55 31,-115 31,-177 0,-116 -38,-224 -103,-311l0 0z"/>
  <path class="fil0" d="M8717 6888c59,37 59,68 310,96 251,28 515,-131 515,-131 0,0 -121,16 -221,-60 -100,-76 -248,-228 -348,-299 -100,-71 -227,-90 -227,-90l0 0c30,66 46,139 46,215 0,98 -27,190 -74,269z"/>
  <path class="fil0" d="M8276 6251c204,0 370,165 370,370 0,204 -165,370 -370,370 -204,0 -370,-165 -370,-370 0,-204 165,-370 370,-370z"/>
  <path class="fil0" d="M7965 6200c0,0 -205,-284 -245,-569 -40,-285 29,-694 29,-694 0,0 14,197 86,320 72,123 182,220 313,366 131,145 217,248 265,351 31,66 39,123 40,155 -55,-20 -115,-31 -177,-31 -117,0 -224,38 -311,103l0 0z"/>
  <path class="fil1" d="M11110 6070c37,-59 68,-59 96,-310 28,-251 -131,-515 -131,-515 0,0 16,121 -60,221 -76,100 -228,248 -299,348 -71,100 -90,227 -90,227l0 0c66,-30 139,-46 215,-46 98,0 190,27 269,74z"/>
  <path class="fil1" d="M10473 6511c0,-204 165,-370 370,-370 204,0 370,165 370,370 0,204 -165,370 -370,370 -204,0 -370,-165 -370,-370z"/>
  <path class="fil1" d="M10422 6822c0,0 -284,205 -569,245 -285,40 -694,-29 -694,-29 0,0 197,-14 320,-86 123,-72 220,-182 366,-313 145,-131 248,-217 351,-265 66,-31 123,-39 155,-40 -20,55 -31,115 -31,177 0,117 38,224 103,311l0 0z"/>
  <path class="fil0" d="M10293 3643c-59,-37 -59,-68 -310,-96 -251,-28 -515,131 -515,131 0,0 121,-16 221,60 100,76 248,228 348,299 100,71 227,90 227,90l0 0c-30,-66 -46,-139 -46,-215 0,-98 27,-190 74,-269z"/>
  <path class="fil0" d="M10734 4281c-204,0 -370,-165 -370,-370 0,-204 165,-370 370,-370 204,0 370,165 370,370 0,204 -165,370 -370,370z"/>
  <path class="fil0" d="M11045 4332c0,0 205,284 245,569 40,285 -29,694 -29,694 0,0 -14,-197 -86,-320 -72,-123 -182,-220 -313,-366 -131,-145 -217,-248 -265,-351 -31,-66 -39,-123 -40,-155 55,20 115,31 177,31 116,0 224,-38 311,-103l0 0z"/>
  <path class="fil2" d="M5089 8726l0 -1093 357 0c48,0 88,6 121,18 33,12 59,29 80,51 20,22 35,48 44,79 9,30 14,64 14,100 0,46 -4,85 -11,118 -7,33 -18,60 -32,82 -14,22 -32,39 -53,51 -21,12 -45,21 -71,27 61,3 109,23 145,59 36,37 54,92 54,165 0,120 -24,207 -71,262 -47,55 -123,82 -226,82l-350 0zm305 -94c55,0 96,-17 122,-50 26,-33 39,-87 39,-161 0,-39 -2,-72 -6,-99 -4,-27 -11,-48 -21,-65 -10,-17 -24,-29 -41,-36 -17,-7 -38,-11 -63,-11l-158 0 0 421 128 0zm17 -507c45,0 77,-16 97,-49 20,-33 30,-82 30,-148 0,-73 -9,-124 -28,-153 -19,-29 -51,-44 -96,-44l-148 0 0 394 146 0zm708 80c29,0 53,-4 72,-12 20,-8 36,-22 49,-41 13,-19 22,-44 28,-76 6,-31 9,-70 9,-117 0,-46 -2,-83 -7,-113 -5,-29 -12,-53 -22,-70 -10,-17 -23,-29 -39,-36 -16,-7 -36,-10 -60,-10l-140 0 0 474 111 0zm-288 521l0 -1093 343 0c51,0 95,6 131,17 36,11 65,29 87,51 22,23 38,52 48,86 10,35 15,75 15,122 0,74 -5,136 -16,186 -10,50 -28,90 -53,121 -25,30 -57,52 -98,66 -40,13 -91,20 -151,20l-130 0 0 325c1,79 -72,97 -177,99zm884 -1093c60,-5 171,30 176,113l0 727c0,182 -99,273 -297,273 -97,0 -166,-21 -208,-63 -18,-19 -33,-40 -43,-65 -18,-48 53,-85 91,-31 4,10 14,18 21,25 21,26 58,39 109,39 54,0 93,-13 116,-39 23,-26 35,-69 35,-129l0 -851zm353 909c12,22 28,40 48,55 32,25 73,37 121,37 23,0 45,-4 66,-12 21,-8 39,-20 55,-34 16,-15 28,-33 37,-54 9,-21 14,-45 14,-72 0,-24 -3,-45 -10,-63 -7,-18 -16,-34 -27,-49 -11,-14 -25,-27 -41,-39 -16,-12 -33,-24 -51,-36 -41,-27 -79,-53 -113,-78 -35,-25 -65,-52 -91,-81 -26,-29 -46,-60 -61,-95 -15,-35 -22,-76 -22,-123 0,-41 6,-79 19,-113 13,-34 32,-64 57,-89 25,-25 56,-45 92,-59 36,-14 78,-21 124,-21 61,0 113,14 157,42 43,27 72,65 87,114 16,32 -65,71 -90,23 -10,-17 -23,-31 -38,-42 -26,-20 -57,-29 -94,-29 -50,0 -90,14 -118,41 -28,28 -42,67 -42,117 0,42 11,77 32,104 21,28 48,53 80,75 32,22 67,44 104,64 38,20 72,44 104,71 32,27 59,60 80,98 21,38 32,86 32,143 0,45 -8,86 -23,124 -15,38 -37,71 -66,98 -29,28 -64,49 -105,65 -41,16 -88,24 -141,24 -68,0 -127,-17 -178,-50 -40,-26 -72,-62 -95,-106 -29,-53 67,-99 94,-49z"/>
  <path class="fil3" d="M13753 8654l0 -571c0,-45 -10,-75 -29,-91 -20,-16 -50,-24 -92,-24 -34,0 -66,8 -96,24 -30,16 -51,34 -64,54l0 607c0,56 -105,88 -168,93l0 -947c89,3 167,64 168,96l0 58c22,-29 54,-54 97,-76 43,-22 93,-33 150,-33 69,0 119,18 153,55 33,37 50,94 50,171l0 675c-90,5 -166,-27 -168,-91z"/>
  <path class="fil3" d="M12496 8717c-12,6 -25,12 -37,16 -28,9 -65,14 -111,14 -72,0 -129,-22 -170,-66 -41,-44 -61,-106 -61,-185l0 -521 0 -40 -67 0 0 -87 67 0 0 -174c132,-1 165,48 167,79l0 94 171 0 0 89 -171 0 0 39 0 522c0,49 10,86 29,113 20,27 51,41 94,41 28,0 50,-3 66,-9 58,-14 76,58 24,77z"/>
  <path class="fil3" d="M11818 8664l0 -44c-19,39 -48,70 -86,92 -38,22 -83,34 -134,34 -78,0 -136,-22 -175,-65 -39,-43 -58,-104 -58,-181 0,-77 15,-136 46,-177 30,-41 78,-72 141,-94 21,-8 43,-14 66,-18 23,-4 46,-9 69,-13 22,-4 44,-10 64,-16 20,-6 38,-15 52,-25l0 -90c0,-47 -10,-82 -29,-106 -19,-24 -55,-36 -108,-36 -40,0 -74,9 -104,26 -18,11 -35,27 -49,47 -52,49 -117,-23 -82,-61 25,-35 55,-61 91,-78 48,-23 100,-35 156,-35 40,0 78,3 113,9 36,6 67,18 93,36 26,18 47,42 62,74 15,32 23,74 23,125l0 492 0 32 0 1 0 149c-89,3 -151,-12 -153,-84l0 4zm-13 -428c-19,10 -41,19 -67,25 -26,6 -50,13 -74,21 -48,15 -82,39 -103,70 -21,31 -31,72 -31,123 0,57 10,99 31,125 20,26 53,39 96,39 33,0 63,-9 89,-26 26,-17 46,-41 60,-71l0 -305z"/>
  <path class="fil3" d="M11112 8655l0 -571c0,-45 -10,-75 -29,-91 -20,-16 -50,-24 -92,-24 -34,0 -66,8 -96,24 -30,16 -51,34 -64,54l0 612c-2,55 -84,86 -168,87l-1 -1112c66,-5 165,39 169,92l0 228c22,-29 54,-54 97,-76 43,-22 93,-33 150,-33 69,0 119,18 153,55 33,37 50,94 50,171l0 675c-63,3 -169,-18 -168,-91z"/>
  <path class="fil3" d="M9392 8591c7,6 14,12 21,18 31,23 69,34 113,34 46,0 80,-12 102,-36 22,-24 34,-54 34,-91 0,-26 -4,-47 -11,-65 -8,-18 -17,-33 -29,-45 -12,-12 -26,-23 -41,-31 -16,-8 -32,-15 -48,-22 -36,-14 -69,-30 -99,-46 -30,-17 -56,-35 -78,-56 -22,-21 -39,-45 -51,-72 -12,-27 -19,-59 -19,-95 0,-43 7,-80 21,-113 14,-32 33,-59 58,-81 25,-21 54,-38 88,-49 34,-11 71,-16 111,-16 49,0 94,9 136,26 30,13 55,33 74,61 34,49 -39,103 -89,52 -7,-6 -14,-12 -22,-17 -25,-15 -54,-22 -86,-22 -19,0 -37,2 -55,7 -18,5 -33,12 -46,22 -13,10 -24,23 -31,38 -8,15 -11,34 -11,56 0,36 10,64 30,84 20,20 45,37 75,50 30,13 62,26 97,38 35,12 67,28 97,48 30,20 55,46 75,79 20,32 30,76 30,131 0,42 -7,79 -22,113 -15,33 -35,61 -61,84 -26,23 -56,40 -92,53 -36,12 -74,19 -115,19 -69,0 -127,-14 -176,-41 -25,-14 -46,-32 -64,-53 -52,-58 3,-127 87,-60z"/>
  <path class="fil3" d="M9031 8193c-8,-108 -13,-287 -156,-287 -144,0 -161,186 -163,285l319 2zm103 404c-8,20 -18,40 -30,58 -13,18 -29,34 -49,47 -20,14 -45,24 -75,32 -30,8 -67,12 -111,12 -116,0 -197,-37 -256,-100 -114,-122 -127,-563 -13,-711 60,-77 136,-128 234,-128 296,0 321,221 335,466l-470 0c-6,176 -25,372 193,374 48,0 83,-9 108,-28 24,-18 35,-36 50,-52 43,-48 101,-6 85,30z"/>
  <path class="fil3" d="M8282 8649l-155 -490 -110 148 0 353c1,63 -120,86 -177,86l0 -1093c53,-3 176,18 177,109l0 391 357 -500c38,-43 128,-15 115,11l-241 335 254 748c-61,0 -193,7 -220,-96z"/>
  <path class="fil3" d="M10444 8193c-8,-108 -13,-287 -156,-287 -144,0 -161,186 -163,285l319 2zm103 404c-8,20 -18,40 -30,58 -13,18 -29,34 -49,47 -20,14 -45,24 -75,32 -30,8 -67,12 -111,12 -116,0 -197,-37 -256,-100 -114,-122 -127,-563 -13,-711 60,-77 136,-128 234,-128 296,0 321,221 335,466l-470 0c-6,176 -25,372 193,374 48,0 83,-9 108,-28 24,-18 35,-36 50,-52 43,-48 101,-6 85,30z"/>
  <path class="fil3" d="M13011 8664l0 -44c-19,39 -48,70 -86,92 -38,22 -83,34 -134,34 -78,0 -136,-22 -175,-65 -39,-43 -58,-104 -58,-181 0,-77 15,-136 46,-177 30,-41 78,-72 141,-94 21,-8 43,-14 66,-18 23,-4 46,-9 69,-13 22,-4 44,-10 64,-16 20,-6 38,-15 52,-25l0 -90c0,-47 -10,-82 -29,-106 -19,-24 -55,-36 -108,-36 -40,0 -74,9 -103,26 -19,11 -35,27 -49,47 -52,49 -117,-23 -82,-61 25,-35 55,-61 91,-78 48,-23 100,-35 156,-35 40,0 78,3 113,9 36,6 67,18 93,36 26,18 47,42 62,74 15,32 23,74 23,125l0 492 0 32 0 1 0 149c-89,3 -151,-12 -153,-84l0 4zm-13 -428c-19,10 -41,19 -67,25 -26,6 -50,13 -74,21 -48,15 -82,39 -103,70 -21,31 -31,72 -31,123 0,57 10,99 31,125 20,26 53,39 96,39 33,0 63,-9 89,-26 26,-17 46,-41 60,-71l0 -305z"/>
  <path class="fil2" d="M5058 9436l0 -380 143 0c29,0 52,4 70,12 18,8 31,20 41,36 10,16 15,33 15,50 0,16 -4,32 -13,46 -9,14 -22,26 -40,35 23,7 41,18 53,35 12,16 19,35 19,58 0,18 -4,34 -11,50 -8,15 -17,27 -28,35 -11,8 -25,15 -42,19 -17,4 -37,6 -61,6l-145 0zm50 -220l82 0c22,0 38,-2 48,-4 13,-4 22,-10 29,-19 6,-9 10,-20 10,-33 0,-13 -3,-24 -9,-33 -6,-10 -15,-16 -26,-20 -11,-4 -31,-5 -58,-5l-76 0 0 115zm0 176l95 0c16,0 28,-1 34,-2 12,-2 21,-5 29,-10 8,-5 14,-12 19,-21 5,-9 8,-20 8,-32 0,-14 -4,-27 -11,-37 -7,-11 -17,-18 -30,-22 -13,-4 -31,-6 -56,-6l-88 0 0 131zm480 10c-17,15 -34,25 -50,31 -16,6 -33,9 -52,9 -30,0 -54,-7 -70,-22 -16,-15 -24,-34 -24,-56 0,-13 3,-26 9,-37 6,-11 14,-20 24,-27 10,-7 21,-12 34,-15 9,-2 23,-5 42,-7 38,-4 66,-10 83,-16 0,-6 0,-10 0,-12 0,-19 -4,-32 -13,-40 -12,-11 -30,-16 -53,-16 -22,0 -38,4 -49,12 -11,8 -18,21 -23,41l-46 -6c4,-20 11,-35 21,-47 10,-12 23,-21 41,-28 18,-6 39,-10 63,-10 24,0 43,3 58,8 15,6 26,12 32,21 7,8 12,19 15,32 2,8 2,22 2,43l0 62c0,43 1,71 3,82 2,12 6,23 11,33l-49 0c-5,-10 -8,-21 -9,-35zm-4 -104c-17,7 -43,13 -77,18 -19,3 -33,6 -41,9 -8,3 -14,9 -18,15 -4,7 -7,14 -7,22 0,12 5,23 14,31 9,8 23,12 41,12 18,0 34,-4 48,-12 14,-8 24,-19 31,-32 5,-11 8,-26 8,-46l0 -17zm297 138l0 -35c-17,27 -43,41 -77,41 -22,0 -42,-6 -60,-18 -18,-12 -33,-29 -43,-51 -10,-22 -15,-47 -15,-75 0,-27 5,-52 14,-75 9,-22 23,-39 41,-51 18,-12 39,-18 61,-18 17,0 31,4 44,11 13,7 23,16 32,27l0 -137 47 0 0 380 -44 0zm-148 -138c0,35 7,62 22,79 15,17 33,26 53,26 20,0 38,-8 52,-25 14,-17 21,-42 21,-76 0,-38 -7,-65 -22,-83 -15,-18 -33,-26 -54,-26 -21,0 -38,8 -52,25 -14,17 -21,44 -21,80zm445 103c-17,15 -34,25 -50,31 -16,6 -33,9 -52,9 -30,0 -54,-7 -70,-22 -16,-15 -24,-34 -24,-56 0,-13 3,-26 9,-37 6,-11 14,-20 24,-27 10,-7 21,-12 34,-15 9,-2 23,-5 42,-7 38,-4 66,-10 83,-16 0,-6 0,-10 0,-12 0,-19 -4,-32 -13,-40 -12,-11 -30,-16 -53,-16 -22,0 -38,4 -49,12 -11,8 -18,21 -23,41l-46 -6c4,-20 11,-35 21,-47 10,-12 23,-21 41,-28 18,-6 39,-10 63,-10 24,0 43,3 58,8 15,6 26,12 32,21 7,8 12,19 15,32 2,8 2,22 2,43l0 62c0,43 1,71 3,82 2,12 6,23 11,33l-49 0c-5,-10 -8,-21 -9,-35zm-4 -104c-17,7 -43,13 -77,18 -19,3 -33,6 -41,9 -8,3 -14,9 -18,15 -4,7 -7,14 -7,22 0,12 5,23 14,31 9,8 23,12 41,12 18,0 34,-4 48,-12 14,-8 24,-19 31,-32 5,-11 8,-26 8,-46l0 -17zm119 138l0 -276 42 0 0 39c20,-30 49,-45 88,-45 17,0 32,3 46,9 14,6 24,14 31,23 7,10 12,21 15,34 2,9 3,24 3,45l0 169 -47 0 0 -168c0,-19 -2,-33 -5,-43 -4,-9 -10,-17 -19,-23 -9,-6 -20,-8 -33,-8 -20,0 -37,6 -51,19 -14,13 -22,37 -22,72l0 150 -47 0zm449 0l0 -380 144 0c25,0 45,1 58,4 19,3 34,9 47,18 13,9 23,21 31,37 8,16 12,33 12,52 0,32 -10,60 -31,82 -21,22 -58,34 -112,34l-98 0 0 155 -50 0zm50 -200l98 0c33,0 56,-6 69,-18 14,-12 20,-29 20,-51 0,-16 -4,-29 -12,-41 -8,-11 -19,-19 -32,-22 -9,-2 -24,-3 -47,-3l-97 0 0 136zm486 111l48 6c-8,28 -22,50 -42,65 -21,15 -47,23 -79,23 -40,0 -72,-12 -96,-37 -24,-25 -35,-60 -35,-104 0,-46 12,-82 36,-108 24,-26 55,-38 93,-38 37,0 67,12 90,38 23,25 35,60 35,106 0,3 0,7 0,12l-205 0c2,30 10,53 26,69 15,16 35,24 57,24 17,0 32,-5 44,-14 12,-9 22,-23 29,-43zm-153 -75l154 0c-2,-23 -8,-41 -18,-52 -15,-18 -34,-27 -58,-27 -21,0 -39,7 -54,22 -15,14 -23,34 -24,58zm260 164l0 -276 42 0 0 39c20,-30 49,-45 88,-45 17,0 32,3 46,9 14,6 24,14 31,23 7,10 12,21 15,34 2,9 3,24 3,45l0 169 -47 0 0 -168c0,-19 -2,-33 -5,-43 -4,-9 -10,-17 -19,-23 -9,-6 -20,-8 -33,-8 -20,0 -37,6 -51,19 -14,13 -22,37 -22,72l0 150 -47 0zm293 106l-5 -43c10,3 19,4 27,4 10,0 19,-2 25,-5 6,-3 11,-8 15,-15 3,-5 8,-16 14,-35 1,-3 2,-6 4,-11l-105 -277 50 0 58 159c8,20 14,41 20,64 5,-21 12,-42 19,-62l59 -161 47 0 -104 281c-11,30 -20,51 -26,62 -8,15 -18,27 -29,34 -11,7 -24,11 -39,11 -9,0 -19,-2 -30,-6zm456 -195l48 6c-8,28 -22,50 -42,65 -21,15 -47,23 -79,23 -40,0 -72,-12 -96,-37 -24,-25 -35,-60 -35,-104 0,-46 12,-82 36,-108 24,-26 55,-38 93,-38 37,0 67,12 90,38 23,25 35,60 35,106 0,3 0,7 0,12l-205 0c2,30 10,53 26,69 15,16 35,24 57,24 17,0 32,-5 44,-14 12,-9 22,-23 29,-43zm-153 -75l154 0c-2,-23 -8,-41 -18,-52 -15,-18 -34,-27 -58,-27 -21,0 -39,7 -54,22 -15,14 -23,34 -24,58zm259 164l0 -380 47 0 0 380 -47 0zm307 -89l48 6c-8,28 -22,50 -42,65 -21,15 -47,23 -79,23 -40,0 -72,-12 -96,-37 -24,-25 -35,-60 -35,-104 0,-46 12,-82 36,-108 24,-26 55,-38 93,-38 37,0 67,12 90,38 23,25 35,60 35,106 0,3 0,7 0,12l-205 0c2,30 10,53 26,69 15,16 35,24 57,24 17,0 32,-5 44,-14 12,-9 22,-23 29,-43zm-153 -75l154 0c-2,-23 -8,-41 -18,-52 -15,-18 -34,-27 -58,-27 -21,0 -39,7 -54,22 -15,14 -23,34 -24,58zm260 164l0 -276 42 0 0 39c20,-30 49,-45 88,-45 17,0 32,3 46,9 14,6 24,14 31,23 7,10 12,21 15,34 2,9 3,24 3,45l0 169 -47 0 0 -168c0,-19 -2,-33 -5,-43 -4,-9 -10,-17 -19,-23 -9,-6 -20,-8 -33,-8 -20,0 -37,6 -51,19 -14,13 -22,37 -22,72l0 150 -47 0zm287 23l45 6c2,14 7,24 16,31 12,9 27,13 48,13 22,0 38,-4 50,-13 12,-9 20,-21 24,-36 2,-9 4,-29 3,-60 -20,24 -46,36 -76,36 -38,0 -67,-14 -88,-41 -21,-27 -31,-60 -31,-98 0,-26 5,-51 14,-73 9,-22 23,-39 41,-51 18,-12 39,-18 64,-18 33,0 59,13 80,40l0 -34 43 0 0 238c0,43 -4,73 -13,91 -9,18 -23,32 -41,42 -19,10 -42,16 -70,16 -33,0 -59,-7 -80,-22 -20,-15 -30,-37 -29,-67zm38 -165c0,36 7,62 22,79 14,17 32,25 54,25 22,0 40,-8 54,-25 15,-16 22,-42 22,-78 0,-34 -8,-59 -22,-76 -15,-17 -33,-26 -54,-26 -21,0 -38,8 -53,25 -15,17 -22,42 -22,75zm257 165l45 6c2,14 7,24 16,31 12,9 27,13 48,13 22,0 38,-4 50,-13 12,-9 20,-21 24,-36 2,-9 4,-29 3,-60 -20,24 -46,36 -76,36 -38,0 -67,-14 -88,-41 -21,-27 -31,-60 -31,-98 0,-26 5,-51 14,-73 9,-22 23,-39 41,-51 18,-12 39,-18 64,-18 33,0 59,13 80,40l0 -34 43 0 0 238c0,43 -4,73 -13,91 -9,18 -23,32 -41,42 -19,10 -42,16 -70,16 -33,0 -59,-7 -80,-22 -20,-15 -30,-37 -29,-67zm38 -165c0,36 7,62 22,79 14,17 32,25 54,25 22,0 39,-8 54,-25 15,-16 22,-42 22,-78 0,-34 -8,-59 -22,-76 -15,-17 -33,-26 -54,-26 -21,0 -38,8 -53,25 -15,17 -22,42 -22,75zm446 108c-17,15 -34,25 -50,31 -16,6 -33,9 -52,9 -30,0 -54,-7 -70,-22 -16,-15 -24,-34 -24,-56 0,-13 3,-26 9,-37 6,-11 14,-20 24,-27 10,-7 21,-12 34,-15 9,-2 23,-5 42,-7 38,-4 66,-10 83,-16 0,-6 0,-10 0,-12 0,-19 -4,-32 -13,-40 -12,-11 -30,-16 -53,-16 -22,0 -38,4 -49,12 -11,8 -18,21 -23,41l-46 -6c4,-20 11,-35 21,-47 10,-12 23,-21 41,-28 18,-6 39,-10 63,-10 24,0 43,3 58,8 15,6 26,12 32,21 7,8 12,19 15,32 2,8 2,22 2,43l0 62c0,43 1,71 3,82 2,12 6,23 11,33l-49 0c-5,-10 -8,-21 -9,-35zm-4 -104c-17,7 -43,13 -77,18 -19,3 -33,6 -41,9 -8,3 -14,9 -18,15 -4,7 -7,14 -7,22 0,12 5,23 14,31 9,8 23,12 41,12 18,0 34,-4 48,-12 14,-8 24,-19 31,-32 5,-11 8,-26 8,-46l0 -17zm119 138l0 -276 42 0 0 42c11,-20 21,-32 30,-39 9,-6 19,-9 30,-9 16,0 32,5 48,15l-17 43c-11,-6 -23,-10 -34,-10 -10,0 -19,3 -27,9 -8,6 -14,15 -17,26 -5,17 -8,35 -8,54l0 144 -47 0zm358 -35c-17,15 -34,25 -50,31 -16,6 -33,9 -52,9 -30,0 -54,-7 -70,-22 -16,-15 -24,-34 -24,-56 0,-13 3,-26 9,-37 6,-11 14,-20 24,-27 10,-7 21,-12 34,-15 9,-2 23,-5 42,-7 38,-4 66,-10 83,-16 0,-6 0,-10 0,-12 0,-19 -4,-32 -13,-40 -12,-11 -30,-16 -53,-16 -22,0 -38,4 -49,12 -11,8 -18,21 -23,41l-46 -6c4,-20 11,-35 21,-47 10,-12 23,-21 41,-28 18,-6 39,-10 63,-10 24,0 43,3 58,8 15,6 26,12 32,21 7,8 12,19 15,32 2,8 2,22 2,43l0 62c0,43 1,71 3,82 2,12 6,23 11,33l-49 0c-5,-10 -8,-21 -9,-35zm-4 -104c-17,7 -43,13 -77,18 -19,3 -33,6 -41,9 -8,3 -14,9 -18,15 -4,7 -7,14 -7,22 0,12 5,23 14,31 9,8 23,12 41,12 18,0 34,-4 48,-12 14,-8 24,-19 31,-32 5,-11 8,-26 8,-46l0 -17zm247 30l45 -6c1,29 7,49 16,60 10,11 23,16 40,16 13,0 23,-3 33,-9 9,-6 15,-14 19,-24 3,-10 5,-26 5,-48l0 -262 50 0 0 259c0,32 -4,56 -12,74 -8,17 -20,31 -37,40 -17,9 -36,14 -59,14 -33,0 -59,-10 -77,-29 -18,-19 -26,-48 -26,-86zm465 73c-17,15 -34,25 -50,31 -16,6 -33,9 -52,9 -30,0 -54,-7 -70,-22 -16,-15 -24,-34 -24,-56 0,-13 3,-26 9,-37 6,-11 14,-20 24,-27 10,-7 21,-12 34,-15 9,-2 23,-5 42,-7 38,-4 66,-10 83,-16 0,-6 0,-10 0,-12 0,-19 -4,-32 -13,-40 -12,-11 -30,-16 -53,-16 -22,0 -38,4 -49,12 -11,8 -18,21 -23,41l-46 -6c4,-20 11,-35 21,-47 10,-12 23,-21 41,-28 18,-6 39,-10 63,-10 24,0 43,3 58,8 15,6 26,12 32,21 7,8 12,19 15,32 2,8 2,22 2,43l0 62c0,43 1,71 3,82 2,12 6,23 11,33l-49 0c-5,-10 -8,-21 -9,-35zm-4 -104c-17,7 -43,13 -77,18 -19,3 -33,6 -41,9 -8,3 -14,9 -18,15 -4,7 -7,14 -7,22 0,12 5,23 14,31 9,8 23,12 41,12 18,0 34,-4 48,-12 14,-8 24,-19 31,-32 5,-11 8,-26 8,-46l0 -17zm119 138l0 -276 42 0 0 39c9,-13 20,-24 34,-33 14,-8 31,-12 49,-12 20,0 37,4 50,13 13,9 22,20 28,36 22,-32 50,-48 85,-48 27,0 49,8 63,23 15,15 22,38 22,70l0 189 -47 0 0 -174c0,-19 -2,-32 -5,-40 -3,-8 -9,-15 -17,-20 -8,-5 -17,-8 -28,-8 -19,0 -36,6 -48,19 -13,13 -19,34 -19,62l0 160 -47 0 0 -179c0,-21 -4,-36 -11,-47 -8,-10 -20,-16 -37,-16 -13,0 -25,3 -36,10 -11,7 -19,17 -24,30 -5,13 -7,33 -7,58l0 143 -47 0zm443 -327l0 -53 47 0 0 53 -47 0zm0 327l0 -276 47 0 0 276 -47 0zm118 0l0 -276 42 0 0 39c20,-30 49,-45 88,-45 17,0 32,3 46,9 14,6 24,14 31,23 7,10 12,21 15,34 2,9 3,24 3,45l0 169 -47 0 0 -168c0,-19 -2,-33 -5,-43 -4,-9 -10,-17 -19,-23 -9,-6 -20,-8 -33,-8 -20,0 -37,6 -51,19 -14,13 -22,37 -22,72l0 150 -47 0zm476 -35c-17,15 -34,25 -50,31 -16,6 -33,9 -52,9 -30,0 -54,-7 -70,-22 -16,-15 -24,-34 -24,-56 0,-13 3,-26 9,-37 6,-11 14,-20 24,-27 10,-7 21,-12 34,-15 9,-2 23,-5 42,-7 38,-4 66,-10 83,-16 0,-6 0,-10 0,-12 0,-19 -4,-32 -13,-40 -12,-11 -30,-16 -53,-16 -22,0 -38,4 -49,12 -11,8 -18,21 -23,41l-46 -6c4,-20 11,-35 21,-47 10,-12 23,-21 41,-28 18,-6 39,-10 63,-10 24,0 43,3 58,8 15,6 26,12 33,21 7,8 12,19 15,32 2,8 2,22 2,43l0 62c0,43 1,71 3,82 2,12 6,23 11,33l-49 0c-5,-10 -8,-21 -9,-35zm-4 -104c-17,7 -43,13 -77,18 -19,3 -33,6 -41,9 -8,3 -14,9 -18,15 -4,7 -7,14 -7,22 0,12 5,23 14,31 9,8 23,12 41,12 18,0 34,-4 48,-12 14,-8 24,-19 31,-32 5,-11 8,-26 8,-46l0 -17zm119 138l0 -276 42 0 0 39c20,-30 49,-45 88,-45 17,0 32,3 46,9 14,6 24,14 31,23 7,10 12,21 15,34 2,9 3,24 3,45l0 169 -47 0 0 -168c0,-19 -2,-33 -5,-43 -4,-9 -10,-17 -19,-23 -9,-6 -20,-8 -33,-8 -20,0 -37,6 -51,19 -14,13 -22,37 -22,72l0 150 -47 0zm432 -122l47 -4c2,19 7,35 16,47 8,12 21,22 38,30 17,8 37,11 58,11 19,0 36,-3 51,-9 15,-6 26,-14 33,-24 7,-10 11,-21 11,-33 0,-12 -3,-22 -10,-31 -7,-9 -18,-16 -34,-22 -10,-4 -33,-10 -68,-19 -35,-8 -59,-16 -73,-24 -18,-10 -32,-21 -40,-36 -9,-14 -13,-30 -13,-47 0,-19 5,-37 16,-54 11,-17 27,-29 48,-38 21,-9 44,-13 70,-13 28,0 53,5 75,14 22,9 38,22 50,40 12,18 18,38 19,60l-48 4c-3,-24 -11,-42 -26,-54 -15,-12 -37,-18 -66,-18 -30,0 -53,6 -67,17 -14,11 -21,25 -21,40 0,14 5,25 15,34 10,9 35,18 76,27 41,9 69,17 84,24 22,10 38,23 49,39 11,16 16,34 16,54 0,20 -6,39 -17,57 -12,18 -28,32 -50,42 -22,10 -46,15 -73,15 -34,0 -63,-5 -86,-15 -23,-10 -41,-25 -55,-45 -13,-20 -20,-43 -21,-68z"/>
  <path class="fil2" d="M12953 9299c0,-51 14,-89 43,-113 24,-20 53,-31 87,-31 38,0 69,12 93,37 24,25 36,59 36,103 0,35 -5,63 -16,84 -11,20 -26,36 -46,47 -20,11 -43,17 -67,17 -39,0 -70,-12 -94,-37 -24,-25 -36,-60 -36,-107zm48 0c0,35 8,62 23,79 16,18 35,26 58,26 23,0 43,-9 58,-26 15,-18 23,-44 23,-80 0,-34 -8,-60 -23,-77 -16,-18 -35,-26 -58,-26 -23,0 -43,9 -58,26 -15,17 -23,44 -23,79zm247 55l46 -7c3,19 10,33 22,43 12,10 29,15 50,15 22,0 37,-4 48,-13 10,-9 16,-19 16,-31 0,-11 -5,-19 -14,-25 -7,-4 -22,-9 -48,-16 -34,-9 -58,-16 -71,-22 -13,-6 -23,-15 -30,-26 -7,-11 -10,-23 -10,-37 0,-12 3,-24 8,-34 6,-10 13,-19 23,-26 7,-5 17,-10 30,-14 13,-4 26,-6 40,-6 22,0 41,3 57,9 16,6 28,15 36,25 8,11 13,25 16,43l-46 6c-2,-14 -8,-26 -18,-34 -10,-8 -24,-12 -42,-12 -21,0 -37,4 -46,11 -9,7 -14,15 -14,25 0,6 2,12 6,16 4,5 10,9 18,12 5,2 18,6 41,12 33,9 56,16 69,22 13,6 23,14 31,24 8,11 11,24 11,40 0,16 -5,30 -14,44 -9,14 -22,24 -39,32 -17,8 -37,11 -58,11 -36,0 -63,-7 -82,-22 -19,-15 -31,-37 -36,-66zm284 -245l0 -53 47 0 0 53 -47 0zm0 327l0 -276 47 0 0 276 -47 0zm298 -35c-17,15 -34,25 -50,31 -16,6 -33,9 -52,9 -30,0 -54,-7 -70,-22 -16,-15 -24,-34 -24,-56 0,-13 3,-26 9,-37 6,-11 14,-20 24,-27 10,-7 21,-12 34,-15 9,-2 23,-5 42,-7 38,-4 66,-10 83,-16 0,-6 0,-10 0,-12 0,-19 -4,-32 -13,-40 -12,-11 -30,-16 -53,-16 -22,0 -38,4 -49,12 -11,8 -18,21 -23,41l-46 -6c4,-20 11,-35 21,-47 10,-12 23,-21 41,-28 18,-6 39,-10 63,-10 24,0 43,3 58,8 15,6 26,12 32,21 7,8 12,19 15,32 2,8 2,22 2,43l0 62c0,43 1,71 3,82 2,12 6,23 11,33l-49 0c-5,-10 -8,-21 -9,-35zm-4 -104c-17,7 -42,13 -77,18 -19,3 -33,6 -41,9 -8,3 -14,9 -18,15 -4,7 -7,14 -7,22 0,12 5,23 14,31 9,8 23,12 41,12 18,0 34,-4 48,-12 14,-8 24,-19 31,-32 5,-11 8,-26 8,-46l0 -17zm118 138l0 -380 47 0 0 380 -47 0z"/>
 </g>
</svg>
